<svg width="51" height="60" viewBox="0 0 51 60" fill="none" xmlns="http://www.w3.org/2000/svg">
<path d="M26.2405 59.8104C27.9463 58.9769 34.2085 55.4486 41.6512 46.7736C41.4631 46.7736 41.275 46.7736 41.0837 46.7736C39.6889 46.7698 38.2955 46.6875 36.9099 46.5271C34.8541 46.293 32.8185 45.9071 30.8196 45.3726C29.0893 44.9122 27.3844 44.3612 25.7119 43.7219V59.8947C25.8925 59.9139 26.0749 59.8848 26.2405 59.8104Z" fill="white"/>
<path d="M50.6348 5.85339C50.6271 5.70463 50.5878 5.55921 50.5194 5.42691C50.4509 5.29462 50.3549 5.17853 50.2379 5.08638C50.1209 4.99423 49.9855 4.92815 49.8408 4.89264C49.6962 4.85714 49.5456 4.853 49.3992 4.88049C49.0749 4.94535 48.7247 5.00374 48.3906 5.05887C46.354 5.39281 44.2927 5.55228 42.229 5.53558C41.7166 5.53558 41.2074 5.50962 40.6982 5.48043C41.2204 5.87932 41.7425 6.28145 42.2549 6.69331C45.006 8.88686 47.5614 11.3153 49.8921 13.9511C50.2164 14.2981 50.4985 14.6483 50.7937 14.9986C50.8812 10.9027 50.732 7.55271 50.6348 5.85339Z" fill="white"/>
<path d="M44.6936 11.7394C43.5002 10.5882 42.2127 9.44988 40.8669 8.35375C39.5211 7.25762 38.0844 6.2361 36.651 5.2859C36.4305 5.13673 36.2035 4.98755 35.9765 4.84162C34.9331 4.60444 33.9053 4.30334 32.8989 3.94006C31.7956 3.5391 30.7235 3.05675 29.6916 2.49694C28.9046 2.07373 28.1463 1.59923 27.4215 1.07652C27.1588 0.885179 26.8961 0.684122 26.6464 0.476571C26.4319 0.235129 26.1454 0.0690962 25.8292 0.00306872C25.7818 -0.00330155 25.7339 -0.00330155 25.6865 0.00306872V38.5232C27.8227 39.5169 30.027 40.3568 32.2827 41.0366C35.481 42.03 38.8057 42.5576 42.1544 42.6029C42.4008 42.6029 42.6505 42.6029 42.8905 42.6029C43.6072 42.5802 44.3045 42.5219 44.9823 42.4343C48.8447 36.224 50.2229 26.6896 50.638 18.7605C49.8433 17.5975 48.9892 16.4761 48.0793 15.4008C47.0141 14.1232 45.8841 12.9012 44.6936 11.7394Z" fill="white"/>
<path d="M19.6769 41.0136L19.0283 40.6893L18.3959 40.3357L18.0165 40.125C17.7214 39.9628 17.4198 39.8007 17.1279 39.6158L15.9021 38.8829L14.7087 38.1111C13.0872 37.0409 11.5468 35.9156 10.1036 34.7676C8.63456 33.5644 7.23034 32.3158 5.92342 31.0478C5.62831 30.7527 5.3105 30.4349 4.95052 30.0749L4.03277 29.102C3.80252 28.8588 3.58848 28.6091 3.38418 28.3692L3.11498 28.0449L2.67394 27.5357L2.25238 27.0168C2.03834 26.7541 1.83077 26.4914 1.62646 26.2288C2.51829 32.9904 4.32464 39.8493 7.83679 44.2306C16.2685 54.78 23.562 58.9732 25.4202 59.8974C25.541 59.9561 25.6722 59.9903 25.8062 59.998V43.7312C25.5921 43.6501 25.3716 43.5723 25.1576 43.488C23.2859 42.7662 21.4561 41.9401 19.6769 41.0136Z" fill="white"/>
<path d="M25.0311 0.366097C24.6192 0.690396 24.2073 1.01469 23.7728 1.33899C23.0026 1.87213 22.1976 2.35318 21.3632 2.7789C20.2831 3.32806 19.1633 3.79527 18.0132 4.1766C16.611 4.63844 15.1726 4.98233 13.713 5.20464C11.9668 5.47614 10.2002 5.59441 8.43345 5.55812C6.33042 5.51899 4.23448 5.30202 2.16802 4.90952C2.02146 4.88206 1.87071 4.88623 1.72587 4.92171C1.58104 4.9572 1.44546 5.0232 1.32818 5.1153C1.21091 5.2074 1.11465 5.32349 1.04584 5.45579C0.977039 5.58808 0.93725 5.73352 0.929181 5.88242C0.828649 7.57201 0.673006 10.9253 0.747595 15.0471C0.900015 15.4071 1.07189 15.767 1.23404 16.1302C2.64223 19.0099 4.418 21.6948 6.51688 24.1177C7.59464 25.387 8.73656 26.6004 9.9382 27.7531C11.1316 28.8979 12.4223 30.0232 13.7714 31.1161C15.1205 32.209 16.5539 33.25 17.9548 34.1937C19.3558 35.1374 20.8054 36.0163 22.4529 36.921C23.5339 37.5113 24.6214 38.0582 25.7153 38.562V0.0158691C25.4597 0.0684504 25.2232 0.189498 25.0311 0.366097Z" fill="white"/>
</svg>
