<svg width="65" height="60" viewBox="0 0 65 60" fill="none" xmlns="http://www.w3.org/2000/svg">
<path d="M39.0244 52.1249C40.0609 54.0946 41.5603 55.7831 43.3936 57.0452C45.2269 58.3073 47.3393 59.1054 49.5492 59.3708C51.7591 59.6361 54.0003 59.3608 56.0803 58.5686C58.1603 57.7763 60.0167 56.4908 61.4901 54.8226C62.9635 53.1543 64.0097 51.1532 64.5388 48.9912C65.0679 46.8293 65.0641 44.5712 64.5277 42.4111C63.9912 40.2509 62.9383 38.2534 61.4592 36.5901C59.9802 34.9269 58.1193 33.6477 56.0367 32.8625C52.8775 31.6348 50.276 29.2946 48.7218 26.2826C47.1576 23.3153 46.6877 19.892 47.3947 16.613C48.1173 13.3102 47.5872 9.85667 45.9073 6.92257C44.6903 4.81329 42.9385 3.06235 40.8285 1.84653C38.7185 0.63071 36.3252 -0.00697053 33.89 -0.00217036C31.9359 -0.00500391 30.0046 0.416897 28.2297 1.23437C25.8066 2.34406 23.7587 4.13482 22.3356 6.38826C20.9126 8.6417 20.1759 11.2605 20.2154 13.9253C20.2549 16.5902 21.0689 19.186 22.5581 21.3963C24.0474 23.6065 26.1475 25.3358 28.6024 26.3731C31.7346 27.6415 34.3297 29.9571 35.9452 32.9252L36.3562 33.7089C37.858 36.646 38.3244 40.004 37.6799 43.2392C37.1142 46.268 37.5879 49.3991 39.0244 52.1249Z" fill="white"/>
<path d="M43.6817 20.1385C44.5533 18.4855 45.0787 16.6721 45.2257 14.8091C45.3728 12.9462 45.1384 11.0728 44.5369 9.30349C43.9354 7.53419 42.9794 5.90616 41.7274 4.51884C40.4754 3.13151 38.9536 2.01405 37.2551 1.23477C35.876 0.458402 34.32 0.0505371 32.7373 0.0505371C31.1547 0.0505371 29.5987 0.458402 28.2195 1.23477C25.7964 2.34447 23.7484 4.13523 22.3254 6.38867C20.9023 8.64211 20.1656 11.2609 20.2051 13.9258C20.2446 16.5906 21.0586 19.1864 22.5479 21.3967C24.0371 23.6069 26.1372 25.3362 28.5922 26.3736C30.0998 27.0054 31.4986 27.8706 32.7373 28.9372C33.978 27.8715 35.3777 27.0064 36.8859 26.3736C39.8067 25.1478 42.2096 22.9432 43.6817 20.1385Z" fill="white"/>
<path d="M51.3446 32.5109C47.9043 32.3908 44.5454 33.5738 41.9398 35.8235C39.4045 37.9483 36.1909 39.0928 32.8833 39.049C29.4906 39.0804 26.2041 37.8671 23.6456 35.6389C21.0612 33.3375 17.7005 32.1015 14.2408 32.18C10.5954 32.2202 7.11527 33.7069 4.566 36.313C2.01673 38.9191 0.607134 42.4311 0.647321 46.0765C0.687507 49.7219 2.17416 53.202 4.78026 55.7513C7.38636 58.3006 10.8984 59.7102 14.5438 59.67C17.6255 59.6745 20.6182 58.6373 23.0361 56.7266C25.6004 54.6471 28.7913 53.4934 32.0926 53.4524H32.9773C36.3558 53.4956 39.614 54.7123 42.194 56.8938C44.2572 58.5814 46.7667 59.6324 49.4167 59.9186C52.0667 60.2049 54.7428 59.714 57.1188 58.5059C59.4947 57.2979 61.4679 55.4247 62.7978 53.1147C64.1277 50.8048 64.757 48.1579 64.6089 45.4966C64.4001 42.0732 62.9276 38.8494 60.4768 36.4501C58.026 34.0508 54.7716 32.647 51.3446 32.5109Z" fill="white"/>
<path d="M19.4171 21.4058C19.0378 20.6876 18.7118 19.9425 18.4418 19.1765C18.5119 21.6551 17.9345 24.1091 16.7664 26.2963C15.2122 29.3084 12.6107 31.6485 9.45149 32.8762C6.20831 34.0893 3.54658 36.4883 2.00426 39.5885C0.408458 42.8246 0.149178 46.5585 1.28239 49.9842C2.4156 53.4099 4.85039 56.2526 8.06124 57.8987C11.2721 59.5448 15.0015 59.8623 18.4444 58.7827C21.8874 57.7031 24.7677 55.313 26.4638 52.1282C27.9035 49.4048 28.381 46.2748 27.8188 43.2459C27.174 40.0096 27.6404 36.6504 29.1424 33.7122L29.5534 32.9285C29.9349 32.2077 30.3815 31.5233 30.8876 30.8838C29.8874 30.0422 28.7644 29.3586 27.5575 28.8565C24.0656 27.3867 21.1896 24.7543 19.4171 21.4058Z" fill="white"/>
</svg>
