<svg width="58" height="60" viewBox="0 0 58 60" fill="none" xmlns="http://www.w3.org/2000/svg">
<path d="M33.3603 20.3044C33.3603 20.3675 33.3603 20.4272 33.3603 20.4869C33.3382 21.0189 33.4416 21.5486 33.6622 22.0332L26.4351 28.6896L19.2046 35.346C18.6865 35.0575 18.1019 34.9099 17.509 34.918L9.71777 12.1979C10.0535 12.0172 10.3646 11.7942 10.6435 11.5343C10.921 11.278 11.1642 10.9869 11.3669 10.6682L33.3603 20.3044Z" fill="white"/>
<path d="M3.11475 38.0442L14.2342 39.0662C14.3664 39.6495 14.651 40.1873 15.0591 40.6245C15.4672 41.0618 15.9841 41.3828 16.557 41.5549L16.7859 50.4511L16.8888 54.3136C16.5585 54.4477 16.2499 54.63 15.973 54.8544L2.05957 39.7498C2.53906 39.271 2.90033 38.687 3.11475 38.0442Z" fill="white"/>
<path d="M7.43163 12.7193H7.64728L15.4917 35.6152C15.4054 35.6816 15.3224 35.7513 15.2395 35.8243C14.8908 36.1456 14.6138 36.5368 14.4265 36.9724L3.28714 35.947C3.15182 35.104 2.77662 34.3178 2.20644 33.6823C1.63626 33.0468 0.895227 32.5889 0.0717773 32.3633L6.51579 12.5999C6.81634 12.67 7.12314 12.71 7.43163 12.7193Z" fill="white"/>
<path d="M20.91 38.6682C20.9743 38.0651 20.8769 37.4559 20.6279 36.9029L35.0822 23.5901C35.6125 23.8839 36.2117 24.0306 36.8177 24.0148L45.183 47.4848C44.8667 47.6576 44.5725 47.8682 44.307 48.1119C44.0442 48.3567 43.8114 48.6319 43.6134 48.9315L20.91 38.6682Z" fill="white"/>
<path d="M32.886 5.32302C33.5368 6.03351 34.4031 6.51036 35.3515 6.68017V7.06178L35.5938 17.4213C35.1606 17.5739 34.7631 17.8133 34.4257 18.1248C34.3461 18.1978 34.2697 18.2775 34.1967 18.3571L26.651 15.0587L12.0507 8.66119C12.0507 8.59151 12.0507 8.5185 12.0507 8.44882C12.0643 8.14927 12.0477 7.84908 12.001 7.55287L31.7612 3.00024C31.8955 3.86954 32.2873 4.6786 32.886 5.32302Z" fill="white"/>
<path d="M52.4971 20.0522C52.0901 20.429 51.758 20.8793 51.5182 21.3795L40.0603 19.9759C39.9432 19.3725 39.6628 18.8128 39.2498 18.3576C38.8368 17.9024 38.3068 17.5693 37.7176 17.3943L37.4688 6.71944V6.57677C38.1073 6.37842 38.6926 6.03809 39.1809 5.5813L52.5037 20.0455L52.4971 20.0522Z" fill="white"/>
<path d="M47.5096 46.9366H47.2342L38.8125 23.3073C38.8888 23.2476 38.9618 23.1878 39.0348 23.1215C39.3576 22.8245 39.6192 22.4671 39.8047 22.0696L51.0701 23.4467C51.0921 24.3857 51.4123 25.2935 51.9844 26.0386C52.5565 26.7836 53.3508 27.3273 54.2523 27.5911L48.3425 47.0494C48.0691 46.9851 47.7902 46.9473 47.5096 46.9366Z" fill="white"/>
<path d="M20.8971 55.2114C20.3948 54.6649 19.735 54.2881 19.0091 54.133L18.6772 41.5038C19.1065 41.3509 19.5005 41.1127 19.8353 40.8036C19.9083 40.7373 19.9713 40.6676 20.0377 40.5979L42.8971 50.9276C42.8971 51.0205 42.8772 51.1101 42.8739 51.1997C42.8609 51.4903 42.8765 51.7815 42.9203 52.0691L21.74 56.781C21.5973 56.1945 21.3071 55.6543 20.8971 55.2114Z" fill="white"/>
<path d="M9.9471 8.36559C9.92394 8.90215 9.71556 9.4141 9.35742 9.81432C8.99928 10.2145 8.51352 10.4783 7.98281 10.5607C7.4521 10.6431 6.9092 10.539 6.44658 10.2662C5.98396 9.99336 5.63018 9.56869 5.44544 9.0644C5.26069 8.5601 5.25645 8.00735 5.43336 7.50026C5.61028 6.99316 5.95738 6.56308 6.41571 6.28314C6.87405 6.0032 7.41524 5.89072 7.94716 5.96488C8.47909 6.03904 8.9689 6.29523 9.3332 6.68986C9.54095 6.9149 9.70217 7.17881 9.80752 7.4664C9.91288 7.75398 9.96031 8.05959 9.9471 8.36559Z" fill="white"/>
<path d="M37.7436 4.03183C37.3481 4.39502 36.839 4.61 36.303 4.64018C35.7669 4.67037 35.2369 4.51388 34.8032 4.19737C34.3695 3.88086 34.0587 3.42388 33.924 2.90414C33.7892 2.3844 33.8387 1.834 34.0639 1.34661C34.2892 0.85921 34.6764 0.464922 35.1596 0.230788C35.6427 -0.00334651 36.1921 -0.0628858 36.7143 0.0623642C37.2364 0.187614 37.6989 0.489905 38.0233 0.917769C38.3477 1.34563 38.5139 1.87265 38.4935 2.4092C38.4819 2.71579 38.4096 3.01704 38.2809 3.29555C38.1521 3.57405 37.9696 3.82429 37.7436 4.03183Z" fill="white"/>
<path d="M53.7973 24.9004C53.4881 24.562 53.286 24.1396 53.2164 23.6865C53.1468 23.2333 53.2128 22.7698 53.4061 22.3541C53.5995 21.9385 53.9115 21.5893 54.3029 21.3506C54.6943 21.112 55.1475 20.9944 55.6056 21.0129C56.0637 21.0313 56.506 21.1849 56.877 21.4542C57.248 21.7236 57.5309 22.0967 57.6902 22.5265C57.8495 22.9564 57.8781 23.4238 57.7723 23.8698C57.6665 24.3159 57.431 24.7206 57.0957 25.0332C56.8711 25.2424 56.6073 25.4051 56.3195 25.5117C56.0317 25.6184 55.7256 25.667 55.4189 25.6546C55.1122 25.6423 54.8109 25.5693 54.5326 25.4398C54.2543 25.3104 54.0044 25.127 53.7973 24.9004Z" fill="white"/>
<path d="M44.9907 51.2911C45.0094 50.7537 45.214 50.2394 45.5696 49.836C45.9251 49.4326 46.4096 49.165 46.9405 49.079C47.4713 48.993 48.0155 49.0938 48.4803 49.3642C48.945 49.6347 49.3016 50.058 49.4891 50.562C49.6766 51.066 49.6834 51.6195 49.5084 52.1279C49.3333 52.6364 48.9873 53.0683 48.5293 53.3501C48.0714 53.6319 47.5298 53.7461 46.997 53.6732C46.4642 53.6002 45.9733 53.3447 45.6079 52.9502C45.1912 52.5003 44.9693 51.9039 44.9907 51.2911Z" fill="white"/>
<path d="M16.6631 55.9357C17.0611 55.5675 17.5746 55.3487 18.1159 55.3168C18.6573 55.2849 19.1929 55.4418 19.6314 55.7606C20.07 56.0795 20.3844 56.5406 20.5209 57.0654C20.6575 57.5902 20.6079 58.146 20.3804 58.6383C20.1529 59.1305 19.7617 59.5285 19.2735 59.7646C18.7853 60.0006 18.2303 60.06 17.7033 59.9325C17.1762 59.8051 16.7097 59.4988 16.3833 59.0658C16.0568 58.6329 15.8907 58.1001 15.9132 57.5583C15.9248 57.2517 15.997 56.9504 16.1257 56.6719C16.2544 56.3934 16.4371 56.1432 16.6631 55.9357Z" fill="white"/>
</svg>
