<svg width="63" height="60" viewBox="0 0 63 60" fill="none" xmlns="http://www.w3.org/2000/svg">
<path d="M10.8973 14.7295C14.9652 14.7295 18.2629 11.4318 18.2629 7.36388C18.2629 3.29598 14.9652 -0.00170898 10.8973 -0.00170898C6.82942 -0.00170898 3.53174 3.29598 3.53174 7.36388C3.53174 11.4318 6.82942 14.7295 10.8973 14.7295Z" fill="white"/>
<path d="M53.7035 14.7295C57.7714 14.7295 61.069 11.4318 61.069 7.36388C61.069 3.29598 57.7714 -0.00170898 53.7035 -0.00170898C49.6356 -0.00170898 46.3379 3.29598 46.3379 7.36388C46.3379 11.4318 49.6356 14.7295 53.7035 14.7295Z" fill="white"/>
<path d="M39.5926 29.679C40.2444 25.6637 37.5177 21.8802 33.5023 21.2284C29.487 20.5766 25.7035 23.3033 25.0517 27.3187C24.4 31.334 27.1267 35.1175 31.142 35.7693C35.1574 36.421 38.9408 33.6943 39.5926 29.679Z" fill="white"/>
<path d="M16.1038 54.7896C18.9802 51.9131 18.9802 47.2495 16.1038 44.373C13.2273 41.4966 8.5637 41.4966 5.68726 44.373C2.81082 47.2495 2.81082 51.9131 5.68726 54.7896C8.5637 57.666 13.2273 57.666 16.1038 54.7896Z" fill="white"/>
<path d="M60.85 51.2419C61.7844 47.2828 59.3324 43.3158 55.3733 42.3813C51.4142 41.4469 47.4472 43.8989 46.5127 47.858C45.5783 51.8171 48.0303 55.7841 51.9894 56.7186C55.9485 57.653 59.9156 55.201 60.85 51.2419Z" fill="white"/>
<path d="M33.0061 42.2498H32.8273C30.0408 42.055 27.4161 40.8695 25.4278 38.9077L21.6818 35.208C19.6951 33.2259 18.474 30.6046 18.2348 27.8085V27.7252C18.0896 26.3383 17.5536 25.021 16.6894 23.9265C15.8252 22.832 14.6681 22.0052 13.3526 21.5422C12.0371 21.0792 10.6172 20.999 9.258 21.311C7.89875 21.6229 6.65594 22.3142 5.67398 23.3045C4.69202 24.2947 4.01122 25.5433 3.71071 26.9051C3.4102 28.2669 3.50231 29.6861 3.97634 30.9976C4.45037 32.3091 5.28688 33.4592 6.38861 34.3143C7.49034 35.1693 8.81205 35.6941 10.2002 35.8277H10.3791C13.1651 36.0241 15.7893 37.2094 17.7785 39.1698L21.5215 42.8695C23.5091 44.8513 24.7312 47.4725 24.9715 50.269C24.9715 50.2968 24.9715 50.3245 24.9715 50.3523C25.1168 51.7393 25.6527 53.0566 26.5169 54.1511C27.3811 55.2456 28.5382 56.0724 29.8537 56.5354C31.1692 56.9983 32.5891 57.0785 33.9483 56.7666C35.3076 56.4546 36.5504 55.7634 37.5323 54.7731C38.5143 53.7828 39.1951 52.5343 39.4956 51.1724C39.7961 49.8106 39.704 48.3915 39.23 47.0799C38.7559 45.7684 37.9195 44.6183 36.8177 43.7633C35.716 42.9083 34.3943 42.3835 33.0061 42.2498Z" fill="white"/>
<path d="M54.3201 21.1456H54.2337C51.3463 20.9632 48.622 19.7434 46.5629 17.711L43.0636 14.2117C41.0765 12.2009 39.8634 9.55301 39.6382 6.73508C39.6398 6.70735 39.6398 6.67956 39.6382 6.65183C39.4994 5.26403 38.9695 3.94414 38.1101 2.84557C37.2508 1.747 36.0974 0.914888 34.7839 0.445915C33.4703 -0.0230583 32.0507 -0.109646 30.6899 0.196277C29.3291 0.502199 28.0832 1.18804 27.0967 2.17407C26.1103 3.16011 25.424 4.40587 25.1176 5.76652C24.8111 7.12717 24.8971 8.54684 25.3656 9.86054C25.8341 11.1742 26.6657 12.328 27.764 13.1878C28.8622 14.0475 30.1819 14.5779 31.5697 14.7173H31.6529C34.4726 14.9416 37.1221 16.156 39.1326 18.1457L42.9279 21.941C44.8865 23.9214 46.1064 26.5137 46.3841 29.285V29.3683C46.5499 30.7521 47.1048 32.0606 47.9844 33.1417C48.8639 34.2228 50.0321 35.0324 51.3532 35.4763C52.6743 35.9203 54.0943 35.9804 55.4482 35.6499C56.8022 35.3193 58.0346 34.6115 59.0025 33.6086C59.9704 32.6058 60.634 31.349 60.9163 29.9842C61.1986 28.6193 61.0881 27.2024 60.5975 25.8979C60.107 24.5933 59.2565 23.4547 58.1448 22.614C57.0331 21.7734 55.7058 21.2653 54.317 21.1487L54.3201 21.1456Z" fill="white"/>
</svg>
