<svg width="14" height="14" viewBox="0 0 14 14" fill="none" xmlns="http://www.w3.org/2000/svg">
<g clip-path="url(#clip0_356_91)">
<path d="M10.2103 -0.00195312H3.78967C1.70001 -0.00195312 0 1.69806 0 3.78771V10.2085C0 12.298 1.70001 13.998 3.78967 13.998H10.2104C12.3 13.998 14 12.298 14 10.2085V3.78771C14 1.69806 12.3 -0.00195312 10.2103 -0.00195312ZM13.1792 10.2085C13.1792 11.8455 11.8474 13.1773 10.2103 13.1773H3.78967C2.15257 13.1773 0.820738 11.8455 0.820738 10.2085V3.78771C0.820738 2.15062 2.15257 0.818785 3.78967 0.818785H10.2104C11.8474 0.818785 13.1792 2.15062 13.1792 3.78771V10.2085Z" fill="white"/>
<path d="M6.99989 3.16992C4.88908 3.16992 3.17188 4.88713 3.17188 6.99793C3.17188 9.10874 4.88908 10.8259 6.99989 10.8259C9.11069 10.8259 10.8279 9.10874 10.8279 6.99793C10.8279 4.88713 9.11069 3.16992 6.99989 3.16992ZM6.99989 10.0052C5.34175 10.0052 3.99261 8.65618 3.99261 6.99793C3.99261 5.33979 5.34175 3.99066 6.99989 3.99066C8.65813 3.99066 10.0072 5.33979 10.0072 6.99793C10.0072 8.65618 8.65813 10.0052 6.99989 10.0052Z" fill="white"/>
<path d="M10.9192 1.81055C10.2954 1.81055 9.78809 2.31801 9.78809 2.94168C9.78809 3.56546 10.2954 4.07292 10.9192 4.07292C11.543 4.07292 12.0505 3.56546 12.0505 2.94168C12.0505 2.3179 11.543 1.81055 10.9192 1.81055ZM10.9192 3.25207C10.7481 3.25207 10.6088 3.11279 10.6088 2.94168C10.6088 2.77046 10.7481 2.63129 10.9192 2.63129C11.0904 2.63129 11.2297 2.77046 11.2297 2.94168C11.2297 3.11279 11.0904 3.25207 10.9192 3.25207Z" fill="white"/>
</g>
<defs>
<clipPath id="clip0_356_91">
<rect width="14" height="14" fill="white" transform="translate(0 -0.00195312)"/>
</clipPath>
</defs>
</svg>
