<svg width="14" height="14" viewBox="0 0 14 14" fill="none" xmlns="http://www.w3.org/2000/svg">
<mask id="path-1-inside-1_356_100" fill="white">
<path d="M13.9958 14.0003L13.9993 13.9997L13.9993 8.86549C13.9993 6.35377 13.4586 4.41895 10.5222 4.41895C9.11063 4.41895 8.16334 5.19358 7.77661 5.92796H7.73578V4.65343H4.95166L4.95166 13.9997H7.85069L7.85069 9.3718C7.85069 8.15327 8.08168 6.97499 9.59069 6.97499C11.0775 6.97499 11.0997 8.36559 11.0997 9.44996L11.0997 14.0003H13.9958Z"/>
</mask>
<path d="M13.9958 14.0003L13.9993 13.9997L13.9993 8.86549C13.9993 6.35377 13.4586 4.41895 10.5222 4.41895C9.11063 4.41895 8.16334 5.19358 7.77661 5.92796H7.73578V4.65343H4.95166L4.95166 13.9997H7.85069L7.85069 9.3718C7.85069 8.15327 8.08168 6.97499 9.59069 6.97499C11.0775 6.97499 11.0997 8.36559 11.0997 9.44996L11.0997 14.0003H13.9958Z" fill="white"/>
<path d="M13.9958 14.0003L13.9958 35.3337H15.7603L17.5008 35.0438L13.9958 14.0003ZM13.9993 13.9997L17.5043 35.0432L35.3327 32.0737V13.9997L13.9993 13.9997ZM7.77661 5.92796L7.77661 27.2613L20.6529 27.2613L26.6526 15.8682L7.77661 5.92796ZM7.73578 5.92796L-13.5976 5.92796L-13.5976 27.2613L7.73578 27.2613L7.73578 5.92796ZM7.73578 4.65343L29.0691 4.65343L29.0691 -16.6799L7.73578 -16.6799L7.73578 4.65343ZM4.95166 4.65343L4.95166 -16.6799L-16.3817 -16.6799L-16.3817 4.65343L4.95166 4.65343ZM4.95166 13.9997L-16.3817 13.9997L-16.3817 35.3331H4.95166L4.95166 13.9997ZM7.85069 13.9997L7.85069 35.3331H29.184L29.184 13.9997L7.85069 13.9997ZM11.0997 14.0003L-10.2336 14.0003L-10.2336 35.3337H11.0997L11.0997 14.0003ZM17.5008 35.0438L17.5043 35.0432L10.4943 -7.04368L10.4908 -7.0431L17.5008 35.0438ZM35.3327 13.9997V8.86549L-7.33401 8.86549L-7.33401 13.9997L35.3327 13.9997ZM35.3327 8.86549C35.3327 7.14446 35.3848 0.638904 31.415 -5.66619C26.0214 -14.2326 17.2572 -16.9144 10.5222 -16.9144L10.5222 25.7523C8.98734 25.7523 6.2537 25.507 3.13698 24.0237C-0.213053 22.4294 -2.88685 19.9326 -4.69116 17.0668C-6.33688 14.453 -6.90779 12.1036 -7.12459 10.9035C-7.34233 9.69814 -7.33401 8.89166 -7.33401 8.86549L35.3327 8.86549ZM10.5222 -16.9144C0.836671 -16.9144 -7.19128 -11.4335 -11.0994 -4.01229L26.6526 15.8682C23.518 21.8207 17.3846 25.7523 10.5222 25.7523L10.5222 -16.9144ZM7.77661 -15.4054H7.73578L7.73578 27.2613H7.77661L7.77661 -15.4054ZM29.0691 5.92796V4.65343L-13.5976 4.65343V5.92796L29.0691 5.92796ZM7.73578 -16.6799H4.95166L4.95166 25.9868H7.73578L7.73578 -16.6799ZM-16.3817 4.65343V13.9997L26.285 13.9997V4.65343L-16.3817 4.65343ZM4.95166 35.3331H7.85069L7.85069 -7.33359H4.95166L4.95166 35.3331ZM29.184 13.9997V9.3718L-13.4826 9.3718V13.9997L29.184 13.9997ZM29.184 9.3718C29.184 9.64831 29.1785 10.5908 28.9741 11.8641C28.7757 13.1004 28.2752 15.4076 26.837 18.0162C25.2755 20.8487 22.7323 23.7836 19.017 25.841C15.4248 27.8302 11.9867 28.3083 9.59069 28.3083L9.59069 -14.3583C6.44015 -14.3583 2.40729 -13.733 -1.65261 -11.4847C-5.83562 -9.16834 -8.71948 -5.86266 -10.5274 -2.58332C-13.5897 2.97113 -13.4826 8.37239 -13.4826 9.3718L29.184 9.3718ZM9.59069 28.3083C6.55738 28.3083 2.33121 27.5543 -1.75208 24.7058C-5.78971 21.8891 -7.89727 18.2726 -8.93125 15.6622C-9.89104 13.2392 -10.1086 11.2543 -10.1754 10.5071C-10.2459 9.71962 -10.2336 9.12188 -10.2336 9.44996L32.433 9.44996C32.433 9.23585 32.4425 8.05765 32.3214 6.70448C32.204 5.39153 31.888 2.85571 30.7368 -0.0505509C29.5114 -3.14411 27.1195 -7.176 22.6596 -10.2873C18.1539 -13.4305 13.3674 -14.3583 9.59069 -14.3583L9.59069 28.3083ZM-10.2336 9.44996L-10.2336 14.0003L32.433 14.0003V9.44996L-10.2336 9.44996ZM11.0997 35.3337H13.9958L13.9958 -7.333H11.0997L11.0997 35.3337Z" fill="white" mask="url(#path-1-inside-1_356_100)"/>
<mask id="path-3-inside-2_356_100" fill="white">
<path d="M0.230957 4.65332L3.13349 4.65332L3.13349 13.9996H0.230957L0.230957 4.65332Z"/>
</mask>
<path d="M0.230957 4.65332L3.13349 4.65332L3.13349 13.9996H0.230957L0.230957 4.65332Z" fill="white"/>
<path d="M0.230957 4.65332L0.230957 -16.68L-21.1024 -16.68L-21.1024 4.65332L0.230957 4.65332ZM3.13349 4.65332L24.4668 4.65332L24.4668 -16.68L3.13349 -16.68L3.13349 4.65332ZM3.13349 13.9996L3.13349 35.333H24.4668L24.4668 13.9996L3.13349 13.9996ZM0.230957 13.9996L-21.1024 13.9996L-21.1024 35.333H0.230957L0.230957 13.9996ZM0.230957 25.9867H3.13349L3.13349 -16.68H0.230957L0.230957 25.9867ZM-18.1998 4.65332V13.9996L24.4668 13.9996V4.65332L-18.1998 4.65332ZM3.13349 -7.3337H0.230957L0.230957 35.333H3.13349L3.13349 -7.3337ZM21.5643 13.9996V4.65332L-21.1024 4.65332V13.9996L21.5643 13.9996Z" fill="white" mask="url(#path-3-inside-2_356_100)"/>
<path d="M1.68115 3.37793L1.50928 3.36914C0.662586 3.28111 0.00126313 2.55182 0.000488281 1.68262L1.68115 1.68164M1.68115 3.37793L1.68115 1.68164M1.68115 3.37793C2.55104 3.37793 3.26768 2.70246 3.354 1.85352L3.36279 1.68066M1.68115 3.37793L1.68115 1.68164M1.68115 1.68164L3.36279 1.68066M3.36279 1.68066C3.36203 0.810733 2.69994 0.094791 1.85303 0.00878906L1.68115 0M3.36279 1.68066L1.68115 1.68066M1.68115 1.68066L1.68115 0M1.68115 1.68066L1.68115 0M1.68115 1.68066L0.000488281 1.68066C0.000717522 0.75296 0.753448 0.000229241 1.68115 0" fill="white" stroke="white" stroke-width="21.3333"/>
</svg>
