<svg width="52" height="36" viewBox="0 0 52 36" fill="none" xmlns="http://www.w3.org/2000/svg">
<g clip-path="url(#clip0_356_500)">
<path d="M25.2007 7.10769C25.3302 7.09636 25.4602 7.09215 25.5901 7.0951C27.4715 7.12699 28.9996 8.12139 30.255 9.46741C30.7333 9.98098 31.1521 10.5457 31.6405 11.0509C29.8128 12.9021 28.94 14.5393 26.0659 14.9354C25.8107 14.9496 25.5549 14.9496 25.2998 14.9354C22.6984 14.7969 21.062 12.8576 19.4575 11.0543C21.1661 9.2014 22.4433 7.36783 25.2007 7.10769Z" fill="white"/>
<path d="M45.3063 19.2881C45.3172 19.2982 45.3298 19.3057 45.3399 19.3166C45.5547 19.5508 45.7485 19.8201 45.9558 20.0677C46.7857 21.0428 47.5846 22.0372 48.3952 23.0282C48.8652 23.6039 49.4618 24.167 49.8394 24.8022C49.9815 25.045 50.0538 25.3224 50.0484 25.6036C50.0342 25.8886 49.9475 26.1653 49.7966 26.4075C49.2839 27.2467 48.522 28.0103 47.9018 28.7807C47.0769 29.8053 46.3074 30.9726 45.3659 31.8856C44.4889 30.6973 40.5659 26.6576 40.5298 25.6078C40.5307 25.2859 40.6214 24.9706 40.7916 24.6973C41.2892 23.8447 42.1645 22.9544 42.8056 22.1975C43.6364 21.2249 44.4428 20.2305 45.3063 19.2881Z" fill="#214EE6"/>
<path d="M5.59641 19.2109C6.13348 19.6951 6.6118 20.3262 7.09683 20.8682C8.00984 21.8887 9.24425 23.1583 9.99697 24.2685C10.1917 24.5547 10.4552 24.9835 10.4728 25.3351C10.4929 25.7203 10.3049 26.1239 10.1128 26.447C9.59418 27.308 8.82718 28.075 8.16005 28.8235C7.34327 29.7421 6.53711 30.6699 5.74159 31.607C5.68704 31.6632 5.72313 31.6389 5.62578 31.6666C5.61152 31.6573 5.59725 31.6498 5.58383 31.6397C5.33711 31.4534 4.84536 30.7578 4.62299 30.4892L2.42774 27.8232C2.05851 27.3709 1.63557 26.9152 1.31837 26.4277C1.13889 26.1659 1.02256 25.866 0.978511 25.5516C0.946767 25.232 1.01228 24.9103 1.16648 24.6285C1.51138 23.9572 2.12229 23.3614 2.60145 22.7824C3.59334 21.5849 4.61543 20.4151 5.59641 19.2109Z" fill="#214EE6"/>
<path d="M4.53146 14.2867C5.35272 14.6783 6.15831 15.1004 6.94824 15.553C7.73817 16.0056 8.51076 16.4853 9.26601 16.9922C10.0296 17.5029 10.7678 18.0487 11.4806 18.6294C13.0162 19.894 16.8252 23.3396 17.1684 25.2495C17.285 25.8982 16.8822 26.6249 16.5264 27.1427C14.035 30.7821 9.05202 33.1007 4.81761 33.8803C5.70712 33.3038 6.42712 32.5729 7.17649 31.8319C8.32363 30.6822 10.7211 28.2235 11.4562 26.9245C11.7012 26.4906 11.8892 25.9938 11.8892 25.4903C11.8892 24.9868 11.7105 24.4632 11.4545 24.0201C10.8075 22.9091 9.84754 21.9986 8.97901 21.0629C7.94181 19.9295 6.88447 18.8148 5.80699 17.7189C4.993 18.527 4.08754 19.2344 3.23831 20.0031C2.17006 20.9698 1.14628 21.986 0.072998 22.9452C1.06489 20.118 2.74656 16.6875 4.53146 14.2867Z" fill="#8E68FF"/>
<path d="M46.2553 14.0559C46.6917 14.5108 47.0467 15.1594 47.3832 15.6915C47.8962 16.4971 48.3806 17.32 48.8366 18.1603C49.2925 19.0006 49.718 19.8562 50.1129 20.7273C50.4897 21.5337 50.8044 22.3653 51.2039 23.1608C50.1692 22.0196 49.022 20.9446 47.9085 19.8755C47.358 19.3452 46.8234 18.7485 46.2251 18.2769C46.0422 18.1326 45.8777 18.0117 45.6377 17.9782C45.302 17.9312 44.9043 17.9782 44.6307 18.1997C44.1608 18.5757 43.142 19.9695 42.6864 20.5124L40.5885 22.9678C40.2025 23.4235 39.7778 23.8808 39.4564 24.3843C39.3029 24.626 39.2231 24.9717 39.1971 25.2587C39.1499 25.6555 39.2078 26.0578 39.365 26.4252C39.777 27.3055 40.7639 28.2906 41.3991 29.0484L43.7001 31.8109C44.6114 32.8372 45.2374 33.4364 46.5121 33.9827C46.0545 33.8926 45.5985 33.7969 45.1443 33.6957C41.3924 32.8204 36.4279 30.1712 34.3694 26.8145C34.0573 26.3052 33.7342 25.6565 33.8936 25.0456C34.0715 24.3701 34.6069 23.7281 35.0232 23.1743C37.8461 19.419 42.1904 16.3519 46.2553 14.0559Z" fill="#8E68FF"/>
<path d="M25.8117 -3.8147e-06C26.431 0.101535 27.0562 0.191325 27.6704 0.319716C33.4606 1.53063 38.4788 4.99804 42.4741 9.25426C43.6741 10.5331 44.8086 11.8557 45.7778 13.3208C44.5552 13.9452 43.3073 14.4957 42.1023 15.162C39.7199 16.4736 37.7261 18.1502 35.8673 20.113C34.716 21.3298 33.6738 22.5617 32.8413 24.0218C32.6752 24.3288 32.5548 24.6585 32.4838 25.0003C32.2883 26.1172 33.0008 27.2618 33.6092 28.1337C35.7238 31.1656 39.7149 33.9466 43.1991 35.1247C43.9868 35.3769 44.7925 35.5694 45.6092 35.7004C43.7865 36.0033 41.311 36.0176 39.4632 35.7952C35.8237 35.3564 32.1776 33.7687 29.645 31.0825C29.3066 30.7316 28.9907 30.3597 28.6992 29.9689C28.4357 29.6081 28.21 29.2137 27.9306 28.8688C27.4078 28.2134 26.6836 27.767 25.8411 27.6789C25.4657 27.6457 25.0875 27.6844 24.7266 27.793C23.3513 28.1874 22.8083 29.3757 21.9977 30.4254C21.4633 31.1331 20.8451 31.7732 20.1566 32.332C17.2044 34.6968 13.3392 35.927 9.56972 35.9404C8.41168 35.9404 7.25616 35.7994 6.10567 35.671C7.0128 35.4243 7.89644 35.1768 8.76916 34.8218C12.0419 33.4917 15.2651 31.2873 17.3655 28.4056C17.749 27.8778 18.1409 27.3088 18.3918 26.7054C18.5549 26.3283 18.6385 25.9216 18.6375 25.5107C18.6365 25.0998 18.5508 24.6936 18.3859 24.3172C17.1104 21.2467 12.996 17.6878 10.2108 15.9978C8.55769 14.9966 6.8542 14.2355 5.06763 13.508C5.35882 13.0934 5.64245 12.673 5.94539 12.2668C9.66875 7.27216 15.0721 2.86825 21.0444 0.92559C22.3133 0.525584 23.6139 0.234461 24.9322 0.0553811L25.0363 0.046149C25.0321 0.0587364 25.0363 0.0738432 25.0237 0.0847522C24.8945 0.242514 24.0352 0.672163 23.8145 0.806428C22.8813 1.36531 21.9599 1.98125 21.0729 2.60895C16.9149 5.56783 13.4139 9.2979 10.2713 13.2915C11.1943 13.4392 12.078 13.7731 12.9566 14.0702C16.7966 15.365 19.0371 16.8931 21.5899 20.0559C22.3896 21.047 23.1004 22.5608 24.2978 23.0433C24.7643 23.2225 25.266 23.2909 25.7634 23.2433C26.2608 23.1957 26.7404 23.0333 27.1644 22.7689C28.2914 22.0632 28.8184 20.6123 29.6122 19.5852C31.9325 16.5827 34.8075 15.0839 38.2992 13.8453C39.0226 13.5885 39.9264 13.4467 40.5809 13.1664C39.8701 12.0176 38.9152 10.9754 38.029 9.96084C35.7927 7.39888 33.3297 5.01566 30.5706 3.0193C29.0492 1.92251 27.4313 0.942374 25.8117 -3.8147e-06Z" fill="#7546FF"/>
</g>
<defs>
<clipPath id="clip0_356_500">
<rect width="51.2727" height="36" fill="white"/>
</clipPath>
</defs>
</svg>
