<svg width="14" height="14" viewBox="0 0 14 14" fill="none" xmlns="http://www.w3.org/2000/svg">
<mask id="path-1-inside-1_356_88" fill="white">
<path d="M8.30314 5.92609L13.4029 -0.00195312H12.1944L7.7663 5.14528L4.22958 -0.00195312H0.150391L5.4986 7.78158L0.150391 13.998H1.35894L6.03514 8.56239L9.77017 13.998H13.8494L8.30284 5.92609H8.30314ZM6.64787 7.85016L6.10598 7.07509L1.79439 0.907818H3.65065L7.13015 5.88501L7.67204 6.66007L12.195 13.1296H10.3387L6.64787 7.85045V7.85016Z"/>
</mask>
<path d="M8.30314 5.92609L13.4029 -0.00195312H12.1944L7.7663 5.14528L4.22958 -0.00195312H0.150391L5.4986 7.78158L0.150391 13.998H1.35894L6.03514 8.56239L9.77017 13.998H13.8494L8.30284 5.92609H8.30314ZM6.64787 7.85016L6.10598 7.07509L1.79439 0.907818H3.65065L7.13015 5.88501L7.67204 6.66007L12.195 13.1296H10.3387L6.64787 7.85045V7.85016Z" fill="white"/>
<path d="M8.30314 5.92609V6.92609H8.76198L9.06122 6.57825L8.30314 5.92609ZM13.4029 -0.00195312L14.161 0.650206L15.5823 -1.00195H13.4029V-0.00195312ZM12.1944 -0.00195312V-1.00195H11.7356L11.4363 -0.654118L12.1944 -0.00195312ZM7.7663 5.14528L6.9421 5.7116L7.6775 6.78186L8.52437 5.79745L7.7663 5.14528ZM4.22958 -0.00195312L5.05377 -0.568264L4.75578 -1.00195H4.22958V-0.00195312ZM0.150391 -0.00195312V-1.00195H-1.75004L-0.673798 0.564362L0.150391 -0.00195312ZM5.4986 7.78158L6.25666 8.43377L6.75891 7.84998L6.32279 7.21527L5.4986 7.78158ZM0.150391 13.998L-0.607671 13.3459L-2.02909 14.998H0.150391V13.998ZM1.35894 13.998V14.998H1.81778L2.11702 14.6502L1.35894 13.998ZM6.03514 8.56239L6.85932 7.99606L6.12392 6.92583L5.27706 7.91023L6.03514 8.56239ZM9.77017 13.998L8.94599 14.5644L9.24398 14.998H9.77017V13.998ZM13.8494 13.998V14.998H15.7498L14.6735 13.4317L13.8494 13.998ZM8.30284 5.92609V4.92609H6.40238L7.47866 6.49242L8.30284 5.92609ZM6.64787 7.85016H7.64787V7.53525L7.46743 7.27716L6.64787 7.85016ZM6.10598 7.07509L5.28641 7.64806L5.28642 7.64809L6.10598 7.07509ZM1.79439 0.907818V-0.092182H-0.12486L0.974817 1.48079L1.79439 0.907818ZM3.65065 0.907818L4.47023 0.334856L4.17169 -0.092182H3.65065V0.907818ZM7.13015 5.88501L6.31057 6.45797L6.31059 6.458L7.13015 5.88501ZM7.67204 6.66007L8.49161 6.0871L8.4916 6.08708L7.67204 6.66007ZM12.195 13.1296V14.1296H14.1142L13.0146 12.5567L12.195 13.1296ZM10.3387 13.1296L9.51916 13.7026L9.8177 14.1296H10.3387V13.1296ZM6.64787 7.85045H5.64787V8.16536L5.8283 8.42344L6.64787 7.85045ZM9.06122 6.57825L14.161 0.650206L12.6448 -0.654112L7.54505 5.27393L9.06122 6.57825ZM13.4029 -1.00195H12.1944V0.998047H13.4029V-1.00195ZM11.4363 -0.654118L7.00822 4.49312L8.52437 5.79745L12.9525 0.650212L11.4363 -0.654118ZM8.59049 4.57897L5.05377 -0.568264L3.40539 0.564357L6.9421 5.7116L8.59049 4.57897ZM4.22958 -1.00195H0.150391V0.998047H4.22958V-1.00195ZM-0.673798 0.564362L4.67441 8.3479L6.32279 7.21527L0.974579 -0.568269L-0.673798 0.564362ZM4.74054 7.1294L-0.607671 13.3459L0.908452 14.6502L6.25666 8.43377L4.74054 7.1294ZM0.150391 14.998H1.35894V12.998H0.150391V14.998ZM2.11702 14.6502L6.79321 9.21455L5.27706 7.91023L0.600857 13.3459L2.11702 14.6502ZM5.21095 9.12871L8.94599 14.5644L10.5944 13.4317L6.85932 7.99606L5.21095 9.12871ZM9.77017 14.998H13.8494V12.998H9.77017V14.998ZM14.6735 13.4317L9.12702 5.35977L7.47866 6.49242L13.0252 14.5644L14.6735 13.4317ZM8.30284 6.92609H8.30314V4.92609H8.30284V6.92609ZM7.46743 7.27716L6.92554 6.5021L5.28642 7.64809L5.82831 8.42315L7.46743 7.27716ZM6.92556 6.50212L2.61397 0.334847L0.974817 1.48079L5.28641 7.64806L6.92556 6.50212ZM1.79439 1.90782H3.65065V-0.092182H1.79439V1.90782ZM2.83107 1.48078L6.31057 6.45797L7.94973 5.31204L4.47023 0.334856L2.83107 1.48078ZM6.31059 6.458L6.85248 7.23306L8.4916 6.08708L7.94971 5.31201L6.31059 6.458ZM6.85246 7.23304L11.3754 13.7026L13.0146 12.5567L8.49161 6.0871L6.85246 7.23304ZM12.195 12.1296H10.3387V14.1296H12.195V12.1296ZM11.1583 12.5567L7.46743 7.27747L5.8283 8.42344L9.51916 13.7026L11.1583 12.5567ZM7.64787 7.85045V7.85016H5.64787V7.85045H7.64787Z" fill="white" mask="url(#path-1-inside-1_356_88)"/>
</svg>
